<svg xmlns="http://www.w3.org/2000/svg" viewBox="0 0 149.05 44.05"><defs><style>.cls-1{fill:#282c34;}</style></defs><g id="Layer_2" data-name="Layer 2"><g id="Layer_1-2" data-name="Layer 1"><path class="cls-1" d="M1.89,4.36A1.86,1.86,0,0,1,0,2.26,1.85,1.85,0,0,1,1.89.17H19.08A1.86,1.86,0,0,1,21,2.26a1.86,1.86,0,0,1-1.89,2.1h-6c-.25,0-.37.08-.37.38V27.63c0,1.51-1.18,1.89-2.23,1.89s-2.22-.38-2.22-1.89V4.74c0-.3-.08-.38-.38-.38Z"/><path class="cls-1" d="M25,19.08V1.89C25,.38,26.12,0,27.17,0s2.22.38,2.22,1.89V19.08c0,3.44,1.85,6.25,6,6.25s6-2.81,6-6.25V1.89C41.47.38,42.64,0,43.69,0s2.22.38,2.22,1.89V19.08c0,6.12-3.44,10.44-10.48,10.44S25,25.2,25,19.08Z"/><path class="cls-1" d="M68.05.84A2,2,0,0,1,69.6,0,2.4,2.4,0,0,1,72,2.18a2,2,0,0,1-.55,1.38l-7,8a.57.57,0,0,0-.21.38,1.12,1.12,0,0,0,.21.46l8.72,13.67a2.38,2.38,0,0,1,.42,1.26,2.44,2.44,0,0,1-2.35,2.18,1.87,1.87,0,0,1-1.68-1.05l-8-12.91c-.13-.21-.21-.3-.38-.3a.35.35,0,0,0-.29.17l-3.73,4.28a2.09,2.09,0,0,0-.3,1.26v6.66c0,1.51-1.17,1.89-2.22,1.89s-2.22-.38-2.22-1.89V1.89C52.41.38,53.58,0,54.63,0s2.22.38,2.22,1.89v10.9c0,.29.09.46.3.46a.31.31,0,0,0,.2-.08Z"/><path class="cls-1" d="M77.39,4.36a1.85,1.85,0,0,1-1.88-2.1A1.85,1.85,0,0,1,77.39.17h17.2a1.85,1.85,0,0,1,1.88,2.09,1.85,1.85,0,0,1-1.88,2.1h-6c-.25,0-.38.08-.38.38V27.63c0,1.51-1.17,1.89-2.22,1.89s-2.22-.38-2.22-1.89V4.74c0-.3-.09-.38-.38-.38Z"/><path class="cls-1" d="M100.45,19.08V1.89c0-1.51,1.18-1.89,2.22-1.89s2.23.38,2.23,1.89V19.08c0,3.44,1.84,6.25,6,6.25s6-2.81,6-6.25V1.89C117,.38,118.15,0,119.2,0s2.22.38,2.22,1.89V19.08c0,6.12-3.44,10.44-10.48,10.44S100.45,25.2,100.45,19.08Z"/><path class="cls-1" d="M143.55.84A2,2,0,0,1,145.11,0a2.39,2.39,0,0,1,2.34,2.18,2,2,0,0,1-.54,1.38l-7,8a.57.57,0,0,0-.21.38,1,1,0,0,0,.21.46l8.72,13.67a2.38,2.38,0,0,1,.42,1.26,2.44,2.44,0,0,1-2.35,2.18A1.86,1.86,0,0,1,145,28.47l-8-12.91c-.12-.21-.21-.3-.37-.3a.38.38,0,0,0-.3.17l-3.73,4.28a2.16,2.16,0,0,0-.29,1.26v6.66c0,1.51-1.18,1.89-2.22,1.89s-2.23-.38-2.23-1.89V1.89c0-1.51,1.18-1.89,2.23-1.89s2.22.38,2.22,1.89v10.9c0,.29.08.46.29.46a.32.32,0,0,0,.21-.08Z"/><path class="cls-1" d="M33.6,41.56c-1.24,0-1.7-.74-1.7-1.89v-3a.1.1,0,0,0-.11-.11h-.44a.55.55,0,1,1,0-1.1h.44c.07,0,.11,0,.11-.11v-1.2a.61.61,0,0,1,1.22,0v1.2c0,.09,0,.11.11.11h.58a.55.55,0,0,1,0,1.1h-.58a.1.1,0,0,0-.11.11v3.09a.62.62,0,0,0,.7.68.52.52,0,0,1,.52.56C34.34,41.23,34.18,41.56,33.6,41.56Z"/><path class="cls-1" d="M40.86,36.59h-.53c-.61,0-1.12.26-1.12,1.46v3A.61.61,0,0,1,38,41V35.9a.54.54,0,0,1,.61-.55.57.57,0,0,1,.6.4c0,.07,0,.09.07.09s0,0,.09-.05a1.79,1.79,0,0,1,1.19-.44c.51,0,.8.13.8.66S41.13,36.59,40.86,36.59Z"/><path class="cls-1" d="M48.12,41c0-.05,0-.09-.07-.09s0,0-.07,0a2.14,2.14,0,0,1-1.68.65,1.71,1.71,0,0,1-1.95-1.77c0-1.54,1.28-1.91,2.5-1.91h1a.1.1,0,0,0,.11-.11v-.22c0-.75-.34-1-1.14-1a1.92,1.92,0,0,0-1.28.41.42.42,0,0,1-.27.09.69.69,0,0,1-.6-.63.58.58,0,0,1,.26-.46,3,3,0,0,1,1.92-.57c2,0,2.36,1,2.36,2.52v2.24c0,.2,0,.3.23.3s.44.22.44.54-.17.61-.77.61A1,1,0,0,1,48.12,41ZM48,39.39V39c0-.08,0-.11-.11-.11h-.92c-.69,0-1.32.1-1.32.77,0,.5.3.8,1,.8A1.2,1.2,0,0,0,48,39.39Z"/><path class="cls-1" d="M54.33,40.86l-1.75-4.68a.66.66,0,0,1,0-.26.63.63,0,0,1,.67-.57.55.55,0,0,1,.53.4L55,39.37c0,.09,0,.22.13.22s.08-.13.12-.22l1.26-3.62a.54.54,0,0,1,.52-.4.64.64,0,0,1,.68.57.91.91,0,0,1,0,.26l-1.75,4.68c-.15.4-.33.7-.78.7S54.47,41.26,54.33,40.86Z"/><path class="cls-1" d="M63.42,41.56c-2,0-2.58-1.09-2.58-3.11,0-1.82.49-3.1,2.52-3.1s2.46,1.37,2.46,2.8c0,.38-.16.78-.71.78H62.22c-.07,0-.11,0-.11.08,0,.9.35,1.41,1.4,1.41a2.33,2.33,0,0,0,1.06-.28c.27-.15.39-.27.58-.27a.64.64,0,0,1,.58.65.51.51,0,0,1-.17.34A3.48,3.48,0,0,1,63.42,41.56Zm1.09-3.64c.06,0,.09,0,.09-.08,0-.9-.37-1.39-1.24-1.39s-1.17.49-1.23,1.35c0,.08,0,.12.08.12Z"/><path class="cls-1" d="M69.77,40V33.5a.61.61,0,0,1,1.22,0v6.42c0,.32.15.48.5.48a.48.48,0,0,1,.5.53c0,.32-.14.63-.75.63C70.15,41.56,69.77,40.93,69.77,40Z"/><path class="cls-1" d="M85.79,38.45c0,1.75-.53,3.11-2.28,3.11a2,2,0,0,1-1.31-.49.08.08,0,0,0-.07,0s-.07,0-.08.08a.55.55,0,0,1-.6.44.54.54,0,0,1-.61-.55V33.5a.61.61,0,0,1,1.22,0v2.3a.06.06,0,0,0,.07.07.09.09,0,0,0,.07,0,2,2,0,0,1,1.31-.49C85.27,35.35,85.79,36.71,85.79,38.45Zm-1.26,0c0-1.11-.06-1.94-1.26-1.94s-1.21.9-1.21,1.94c0,.86,0,1.95,1.21,1.95S84.53,39.56,84.53,38.45Z"/><path class="cls-1" d="M89.75,40V33.5a.61.61,0,0,1,1.22,0v6.42c0,.32.15.48.5.48a.48.48,0,0,1,.5.53c0,.32-.14.63-.75.63C90.13,41.56,89.75,40.93,89.75,40Z"/><path class="cls-1" d="M97.7,35.35c2.09,0,2.52,1.36,2.52,3.1s-.43,3.11-2.52,3.11-2.52-1.36-2.52-3.11S95.61,35.35,97.7,35.35Zm0,5c1.2,0,1.26-.84,1.26-1.95s-.06-1.94-1.26-1.94-1.26.83-1.26,1.94S96.5,40.4,97.7,40.4Z"/><path class="cls-1" d="M103.91,38.45c0-1.74.51-3.1,2.25-3.1a2,2,0,0,1,1.31.49.11.11,0,0,0,.07,0s.07,0,.07-.06a.63.63,0,0,1,1.23.09v5.85c0,1.58-1.35,2.3-2.72,2.3a3.34,3.34,0,0,1-1.59-.33.5.5,0,0,1-.28-.45.62.62,0,0,1,.55-.65.73.73,0,0,1,.3.09,2,2,0,0,0,1,.19c.81,0,1.49-.43,1.49-1.12v-.65c0-.07,0-.1-.07-.1a.09.09,0,0,0-.07,0,2,2,0,0,1-1.31.49C104.44,41.56,103.91,40.2,103.91,38.45Zm3.7,0c0-.85,0-1.94-1.21-1.94s-1.23.83-1.23,1.94.06,1.95,1.23,1.95S107.61,39.48,107.61,38.45Z"/><path class="cls-1" d="M113.55,40a.79.79,0,1,1-.79.78A.79.79,0,0,1,113.55,40Z"/></g></g></svg>