<svg xmlns="http://www.w3.org/2000/svg" viewBox="0 0 220.69 224.96"><defs><style>.cls-1{fill:#fff;}</style></defs><g id="Layer_2" data-name="Layer 2"><g id="Layer_1-2" data-name="Layer 1"><path class="cls-1" d="M217,193.36s3.65,2.55,3.65,3.55c0,0,1.68-8.47-13.66-12.74a26,26,0,0,0-15.34.74s16-10,8-40l-26-35.15S170.09,97.09,141.87,98L53.8,104.7s-21.14-.18-25.65,28L19.6,198.13s-2,13.78,11,13.78c0,0,2,14,18,13,0,0,13,1,16-10,0,0,10,0,11-7,0,0,73,11,103-1,0,0-2,5-1,6,0,0,1,3,4,0,0,0,1-7,6-10a14.2,14.2,0,0,0-1,11s2,11.1,18.48,11.05c0,0,17.25-.51,14.88-16.28,0,0,.64-10.77-9.36-15.77C210.64,192.91,213.34,190.82,217,193.36Zm-88.38-86.11-.16,3.34,1.67-1.62.53.9,1-1.14.8,1.71,2.09-2.9.52,1.61,1.22-.61a111.44,111.44,0,0,0-4.25,10.7c4.55-5,8.54-9,11.29-11.66l1.52-.19-.57,1.72,3.87-2.27-1,2.83,1.76-.8,0,1.37,2.46-1,1.45-.45.34,1.34a213.66,213.66,0,0,0-19.25,19.07s4,8.35,8.62,20.94l-1.79.14-1.5-1.5.2,2.77-.69,1.35L137,151.34l-.37,1.27-1.6-1.5-.71,2.17-8-17.21s-2.19,5.08-4.57,16.93h-1.09l-1.15,1-.6-2-.87,1-.62-2.32-2,3.38-.69-1.71L113,153.52c2.07-13.64,9.19-35.07,14.13-46.08Zm-34.33,3L94,113.58l2.18-2.24.63.57,1-1.14.57,1.6,1.92-2.93.48,1.77,1.48-.84a112,112,0,0,0-4.68,11.7c-1.49,4-5.34,13.87-5.59,16.39-.32,3.24-.42,5.53,1.33,6.59,2.71.79,4.07-.38,5.58-3.84,4.24-9.66,8-23.61,10.88-31l2.07-1.14v3.16l2.64-3.79.56,1.23.11,2.23,1.86-2.12.54,1,2.12-2.18.79,1.43a253.83,253.83,0,0,0-10.86,30.41c-.83,2.83-4,8.29-5.66,9.73-6,5.5-10.38,5.95-16.37,4.08-5.77-1.72-5.7-8.82-5.42-12.87.53-6.52,5.32-19.32,11.15-32.07ZM68.8,156.36l-1.66.53-.34-2.28-1.14,1.1-.34-2.39-.9,1.63-1.88,1.52-.19-3.54-2,2.34-.84-1.43c2.3-8.3,7.48-25.16,10.52-32.63l-6,.53-.36-1.56,3.07-1.8-2.94-1,.54-1.17,4.14-1.2-2.68-1.12-.18-1.41c11.09-1.72,20.82-2.44,20.82-2.44l1,1.31-1.15.93,2.16.59-2.33,1.49,1.06,1.36-1.67,1.51.8,1.76-6.23.76C77.14,126.79,71.77,143.11,68.8,156.36Zm14.46,44.71-1.67.53-.33-2.28-1.15,1.1L79.77,198l-.9,1.63L77,201.18l-.19-3.53-2,2.34L74,198.55c2.3-8.3,7.48-25.16,10.53-32.62l-6,.53-.36-1.57,3.07-1.79-2.94-1,.54-1.17,4.14-1.2-2.68-1.11-.18-1.41c11.09-1.73,20.82-2.45,20.82-2.45l1,1.31-1.15.93,2.16.6-2.32,1.48,1,1.37L100,162l.8,1.76-6.23.76C91.59,171.5,86.22,187.83,83.26,201.07Zm35.09-6.13c-6,5.5-10.39,5.94-16.38,4.07-5.76-1.72-5.7-8.82-5.42-12.87.54-6.52,5.33-19.32,11.16-32.06l1,.93-.32,3.29,2.17-2.24.63.56,1-1.14.57,1.61,1.92-2.94.48,1.78,1.48-.84a113.42,113.42,0,0,0-4.68,11.7c-1.49,4-5.34,13.86-5.59,16.38-.32,3.24-.42,5.54,1.33,6.59,2.71.79,4.07-.37,5.58-3.83,4.25-9.67,8-23.61,10.89-31l2.06-1.15V157l2.64-3.8.55,1.23.12,2.23,1.85-2.12.54,1,2.13-2.18.78,1.43A255.61,255.61,0,0,0,124,185.2C123.17,188,120,193.49,118.35,194.94Zm29.94-21s4,8.36,8.62,20.94l-1.79.15-1.5-1.51.2,2.77-.69,1.35-1.66-1.55-.37,1.27-1.61-1.49-.71,2.16-8-17.21s-2.2,5.08-4.58,16.94h-1.09l-1.15,1-.6-2.05-.87,1-.61-2.31-2,3.38-.69-1.71-1.79,1.18c2.07-13.64,9.19-35.07,14.13-46.08l1.52-.19-.15,3.34,1.66-1.61.54.9,1-1.15.8,1.71,2.09-2.89.52,1.61,1.22-.61A108.14,108.14,0,0,0,146.47,164c4.54-5,8.53-9,11.28-11.66l1.52-.19-.56,1.72,3.86-2.27-1,2.83,1.76-.8,0,1.37,2.46-1,1.45-.46.34,1.35A213.31,213.31,0,0,0,148.29,173.9Z"/><path class="cls-1" d="M120,105,104,0S84,22,0,31c0,0,6,56,14,63,0,0,91-18,98-24l6,39Z"/></g></g></svg>