<svg xmlns="http://www.w3.org/2000/svg" viewBox="0 0 29.29 29.86"><defs><style>.cls-1{fill:#06060a;}</style></defs><g id="Layer_2" data-name="Layer 2"><g id="Layer_1-2" data-name="Layer 1"><path class="cls-1" d="M28.8,25.66s.48.34.48.48.23-1.13-1.81-1.7a3.43,3.43,0,0,0-2,.1s2.12-1.32,1.06-5.31l-3.45-4.66s-.47-1.68-4.22-1.56L7.14,13.9s-2.81,0-3.4,3.72L2.6,26.3s-.26,1.83,1.47,1.83a2.1,2.1,0,0,0,2.39,1.72s1.72.14,2.12-1.32c0,0,1.33,0,1.46-.93,0,0,9.69,1.46,13.67-.14,0,0-.27.67-.13.8s.13.4.53,0a2,2,0,0,1,.79-1.33,1.93,1.93,0,0,0-.13,1.46s.26,1.48,2.45,1.47c0,0,2.29-.07,2-2.16A2.32,2.32,0,0,0,28,25.6.72.72,0,0,1,28.8,25.66ZM17.07,14.24l0,.44.22-.22.07.12.13-.15.11.23.27-.39.07.22.17-.08a12.77,12.77,0,0,0-.57,1.42c.6-.66,1.13-1.2,1.5-1.55l.2,0-.07.23.51-.3-.13.38.23-.11v.18l.33-.13.19-.06.05.18a26.8,26.8,0,0,0-2.56,2.53s.54,1.11,1.15,2.78l-.24,0-.2-.2,0,.36-.09.18-.23-.2,0,.17-.22-.2-.09.28-1.06-2.28a12.72,12.72,0,0,0-.61,2.25H16l-.16.13-.08-.27-.11.14L15.59,20l-.27.45-.09-.23-.24.16a29.39,29.39,0,0,1,1.88-6.12Zm-4.56.4,0,.44.29-.3.08.07L13,14.7l.08.21.25-.38.07.23.19-.11a15.17,15.17,0,0,0-.62,1.55,19.44,19.44,0,0,0-.74,2.18c0,.43,0,.73.18.87s.54-.05.74-.51c.56-1.28,1.07-3.13,1.44-4.11l.28-.15v.42l.35-.5.07.16,0,.3.24-.28.08.13.28-.29.1.19a34.06,34.06,0,0,0-1.44,4,4.22,4.22,0,0,1-.75,1.29,1.93,1.93,0,0,1-2.17.54c-.77-.23-.76-1.17-.72-1.71a16.57,16.57,0,0,1,1.48-4.25ZM9.13,20.75l-.22.07,0-.3-.16.15,0-.32-.12.22-.25.2,0-.47L8,20.61l-.12-.19c.31-1.1,1-3.34,1.4-4.33l-.8.07L8.45,16l.41-.24-.39-.13.07-.15.55-.16-.35-.15,0-.19c1.48-.23,2.77-.32,2.77-.32l.14.17-.16.12.29.08-.31.2.14.18-.22.2.11.23-.83.11A34.86,34.86,0,0,0,9.13,20.75Zm1.92,5.94-.22.07-.05-.3-.15.14,0-.31-.12.21-.25.2,0-.47-.26.31-.11-.19c.31-1.1,1-3.34,1.4-4.33l-.8.07-.05-.2.41-.24-.39-.13.07-.16L11,21.2l-.36-.15,0-.18c1.47-.23,2.76-.33,2.76-.33l.14.18-.15.12.29.08-.31.19.14.19-.22.2.1.23-.82.1A33.34,33.34,0,0,0,11.05,26.69Zm4.66-.82a1.94,1.94,0,0,1-2.18.54c-.76-.22-.75-1.17-.72-1.7a17,17,0,0,1,1.49-4.26l.13.12,0,.44.29-.3.08.08.13-.15.08.21.25-.39.07.24.19-.11a13.52,13.52,0,0,0-.62,1.55,17.51,17.51,0,0,0-.74,2.17c0,.43-.06.74.18.88s.54-.05.74-.51c.56-1.28,1.06-3.14,1.44-4.11l.28-.15v.42l.35-.51.07.17,0,.29.24-.28.07.13.29-.28.1.19a34,34,0,0,0-1.44,4A4.1,4.1,0,0,1,15.71,25.87Zm4-2.79s.54,1.11,1.15,2.78l-.24,0-.2-.2,0,.37-.1.18L20.1,26l-.05.17-.21-.2-.09.29L18.69,24a13.1,13.1,0,0,0-.61,2.25h-.14l-.16.13-.08-.27-.11.14-.08-.31-.27.45-.09-.23-.24.16a29.57,29.57,0,0,1,1.88-6.12l.2,0,0,.44.22-.21.07.12.13-.15.1.22.28-.38.07.21.16-.08c-.33.72-.42,1.05-.56,1.42.6-.66,1.13-1.19,1.5-1.55l.2,0-.08.23.52-.3-.14.37.24-.11v.19l.33-.14.19-.06,0,.18A29.45,29.45,0,0,0,19.68,23.08Z"/><path class="cls-1" d="M15.93,13.94,13.8,0S11.15,2.92,0,4.11c0,0,.8,7.44,1.86,8.37,0,0,12.08-2.39,13-3.19l.79,5.18Z"/></g></g></svg>